<?xml version="1.0" encoding="utf-8"?>
<!-- Generator: Adobe Illustrator 16.0.4, SVG Export Plug-In . SVG Version: 6.00 Build 0)  -->
<!DOCTYPE svg PUBLIC "-//W3C//DTD SVG 1.1//EN" "http://www.w3.org/Graphics/SVG/1.1/DTD/svg11.dtd">
<svg version="1.1" id="Layer_1" xmlns="http://www.w3.org/2000/svg" xmlns:xlink="http://www.w3.org/1999/xlink" x="0px" y="0px"
	 width="50px" height="50px" viewBox="0 0 50 50" enable-background="new 0 0 50 50" xml:space="preserve">
<g>
	<path fill-rule="evenodd" clip-rule="evenodd" fill="#F5AC11" d="M21.321,0.17c-5.572,6.608,5.662,7.064,1.674,15.292
		C31.147,8.957,20.072,5.433,21.321,0.17L21.321,0.17z M27.875,0.078c-7.09,4.938,3.638,8.288-2.347,15.206
		C35.094,11.109,25.308,4.838,27.875,0.078L27.875,0.078z M34.227,1.687c-8.125,2.939,1.368,8.948-6.199,14.083
		C38.342,14.211,30.516,5.621,34.227,1.687L34.227,1.687z M39.951,4.886c-8.608,0.735-0.997,8.998-9.639,11.996
		C40.684,18.049,35.346,7.722,39.951,4.886L39.951,4.886z M44.648,9.454c-8.509-1.519-3.293,8.433-12.412,9.095
		C41.95,22.356,39.467,11.004,44.648,9.454L44.648,9.454z M48.004,15.081c-7.822-3.668-5.36,7.297-14.344,5.575
		C42.058,26.85,42.597,15.242,48.004,15.081L48.004,15.081z M49.787,21.39c-6.604-5.573-7.067,5.658-15.296,1.67
		C40.997,31.213,44.522,20.141,49.787,21.39L49.787,21.39z M49.879,27.94c-4.94-7.084-8.294,3.636-15.21-2.343
		C38.847,35.156,45.117,25.375,49.879,27.94L49.879,27.94z M48.272,34.291c-2.94-8.123-8.954,1.368-14.087-6.196
		C35.743,38.407,44.333,30.582,48.272,34.291L48.272,34.291z M45.07,40.014c-0.731-8.61-9-0.994-12.001-9.635
		C31.904,40.748,42.233,35.412,45.07,40.014L45.07,40.014z M40.504,44.709c1.517-8.506-8.438-3.29-9.103-12.406
		C27.596,42.015,38.951,39.53,40.504,44.709L40.504,44.709z M34.873,48.062c3.667-7.817-7.302-5.356-5.579-14.339
		C23.1,42.121,34.716,42.659,34.873,48.062L34.873,48.062z M28.561,49.849c5.573-6.608-5.661-7.065-1.672-15.295
		C18.736,41.059,29.812,44.583,28.561,49.849L28.561,49.849z M22.007,49.939c7.094-4.94-3.636-8.289,2.349-15.205
		C14.789,38.91,24.576,45.181,22.007,49.939L22.007,49.939z M15.654,48.332c8.128-2.939-1.367-8.949,6.202-14.082
		C11.539,35.808,19.366,44.397,15.654,48.332L15.654,48.332z M9.931,45.133c8.614-0.73,0.997-9,9.639-11.997
		C9.198,31.969,14.539,42.296,9.931,45.133L9.931,45.133z M5.235,40.563c8.51,1.52,3.289-8.434,12.41-9.097
		C7.935,27.662,10.42,39.014,5.235,40.563L5.235,40.563z M1.878,34.937c7.829,3.666,5.362-7.3,14.347-5.574
		C7.826,23.169,7.289,34.78,1.878,34.937L1.878,34.937z M0.094,28.629c6.612,5.571,7.067-5.661,15.301-1.673
		C8.884,18.806,5.356,29.877,0.094,28.629L0.094,28.629z M0.004,22.076c4.94,7.092,8.293-3.635,15.213,2.344
		C11.038,14.86,4.769,24.643,0.004,22.076L0.004,22.076z M1.61,15.724c2.942,8.127,8.954-1.367,14.093,6.2
		C14.14,11.611,5.549,19.436,1.61,15.724L1.61,15.724z M4.812,10.002c0.737,8.613,9.001,0.995,12.002,9.636
		C17.978,9.271,7.651,14.609,4.812,10.002L4.812,10.002z M9.385,5.308c-1.522,8.505,8.431,3.29,9.096,12.409
		C22.29,8.009,10.93,10.494,9.385,5.308L9.385,5.308z M15.012,1.953c-3.671,7.823,7.3,5.358,5.577,14.339
		C26.782,7.896,15.171,7.357,15.012,1.953L15.012,1.953z"/>
</g>
<g>
</g>
<g>
</g>
<g>
</g>
<g>
</g>
<g>
</g>
<g>
</g>
<g>
</g>
<g>
</g>
<g>
</g>
<g>
</g>
<g>
</g>
<g>
</g>
<g>
</g>
<g>
</g>
<g>
</g>
</svg>
